<svg xmlns="http://www.w3.org/2000/svg" viewBox="0 0 64 64" fill="none">
  <defs>
    <linearGradient id="logoGrad" x1="0%" y1="0%" x2="100%" y2="100%">
      <stop offset="0%" stop-color="#06B6D4"/>
      <stop offset="100%" stop-color="#3B82F6"/>
    </linearGradient>
  </defs>
  <path d="M32 4L56 17.5V42.5L32 56L8 42.5V17.5L32 4Z" stroke="url(#logoGrad)" stroke-width="2.5" fill="none"/>
  <path d="M32 14L44 21V35L32 42L20 35V21L32 14Z" stroke="url(#logoGrad)" stroke-width="1.8" fill="none"/>
  <circle cx="32" cy="28" r="4" fill="url(#logoGrad)"/>
  <circle cx="20" cy="21" r="2" fill="url(#logoGrad)" opacity="0.6"/>
  <circle cx="44" cy="21" r="2" fill="url(#logoGrad)" opacity="0.6"/>
  <circle cx="20" cy="35" r="2" fill="url(#logoGrad)" opacity="0.6"/>
  <circle cx="44" cy="35" r="2" fill="url(#logoGrad)" opacity="0.6"/>
  <circle cx="32" cy="42" r="2" fill="url(#logoGrad)" opacity="0.6"/>
  <circle cx="32" cy="14" r="2" fill="url(#logoGrad)" opacity="0.6"/>
  <line x1="32" y1="32" x2="32" y2="42" stroke="url(#logoGrad)" stroke-width="1" opacity="0.4"/>
  <line x1="32" y1="32" x2="20" y2="35" stroke="url(#logoGrad)" stroke-width="1" opacity="0.4"/>
  <line x1="32" y1="32" x2="44" y2="35" stroke="url(#logoGrad)" stroke-width="1" opacity="0.4"/>
  <line x1="32" y1="32" x2="32" y2="14" stroke="url(#logoGrad)" stroke-width="1" opacity="0.4"/>
  <line x1="32" y1="32" x2="20" y2="21" stroke="url(#logoGrad)" stroke-width="1" opacity="0.4"/>
  <line x1="32" y1="32" x2="44" y2="21" stroke="url(#logoGrad)" stroke-width="1" opacity="0.4"/>
</svg>